<svg xmlns="http://www.w3.org/2000/svg" viewBox="0 0 64 64" width="64" height="64" role="img" aria-label="SV Elversberg">
  <title>SV Elversberg</title>
  <circle cx="32" cy="32" r="32" fill="#1A1A1A"/>
  <path d="M18.73 43.36Q15.87 43.36 14.60 42.20Q13.33 41.03 13.22 38.31Q13.20 37.77 13.20 37.18Q13.20 36.60 13.23 36.01Q13.26 35.43 13.31 34.86H16.68Q16.62 35.95 16.61 36.98Q16.61 38.02 16.68 38.93Q16.75 39.70 17.25 40.06Q17.75 40.43 18.72 40.43Q19.65 40.43 20.13 40.06Q20.61 39.70 20.69 38.93Q20.75 38.42 20.76 37.88Q20.77 37.35 20.75 36.81Q20.73 36.28 20.69 35.76Q20.64 35.03 20.21 34.52Q19.79 34.01 19.04 33.83L16.80 33.32Q15.44 33.00 14.65 32.35Q13.87 31.69 13.52 30.68Q13.18 29.67 13.13 28.28Q13.12 27.58 13.12 26.95Q13.12 26.32 13.13 25.66Q13.20 23.86 13.79 22.75Q14.38 21.65 15.59 21.14Q16.79 20.64 18.72 20.64Q21.54 20.64 22.80 21.80Q24.07 22.96 24.16 25.66Q24.19 26.35 24.18 27.26Q24.16 28.18 24.12 29.03H20.69Q20.73 27.99 20.75 27.00Q20.76 26.01 20.72 25.04Q20.69 24.29 20.19 23.93Q19.69 23.57 18.72 23.57Q17.77 23.57 17.28 23.93Q16.79 24.29 16.70 25.04Q16.63 25.86 16.63 26.66Q16.63 27.46 16.70 28.28Q16.76 29.03 17.08 29.53Q17.40 30.03 18.12 30.18L20.12 30.61Q21.59 30.94 22.49 31.62Q23.39 32.29 23.80 33.33Q24.22 34.36 24.28 35.76Q24.29 36.17 24.29 36.61Q24.29 37.04 24.28 37.47Q24.28 37.90 24.25 38.31Q24.14 41.03 22.86 42.20Q21.58 43.36 18.73 43.36Z M29.62 43.11 26.62 20.89H30.32L31.86 32.40L32.19 39.96H33.43L33.76 32.40L35.32 20.89H39.02L36.01 43.11Z M41.82 43.11V20.89H51.10V24.04H45.39V30.26H50.82V33.42H45.39V39.96H51.10V43.11Z" fill="#ffffff"/>
  <circle cx="32" cy="32" r="31" fill="none" stroke="#64748b" stroke-width="2"/>
</svg>
